<svg id="visual" viewBox="0 0 900 600" width="900" height="600" xmlns="http://www.w3.org/2000/svg" xmlns:xlink="http://www.w3.org/1999/xlink" version="1.1"><rect x="0" y="0" width="900" height="600" fill="#19a413"></rect><path d="M0 468L100 434L200 439L300 454L400 411L500 454L600 421L700 416L800 434L900 414L900 601L800 601L700 601L600 601L500 601L400 601L300 601L200 601L100 601L0 601Z" fill="#19a413"></path><path d="M0 485L100 429L200 463L300 469L400 453L500 439L600 493L700 450L800 432L900 428L900 601L800 601L700 601L600 601L500 601L400 601L300 601L200 601L100 601L0 601Z" fill="#68af1d"></path><path d="M0 486L100 516L200 474L300 499L400 497L500 481L600 464L700 461L800 498L900 509L900 601L800 601L700 601L600 601L500 601L400 601L300 601L200 601L100 601L0 601Z" fill="#97b831"></path><path d="M0 527L100 521L200 500L300 498L400 531L500 506L600 499L700 534L800 537L900 536L900 601L800 601L700 601L600 601L500 601L400 601L300 601L200 601L100 601L0 601Z" fill="#bfc24a"></path><path d="M0 558L100 529L200 523L300 552L400 557L500 551L600 536L700 539L800 553L900 533L900 601L800 601L700 601L600 601L500 601L400 601L300 601L200 601L100 601L0 601Z" fill="#e2cc67"></path><path d="M0 553L100 580L200 572L300 559L400 563L500 561L600 554L700 579L800 565L900 574L900 601L800 601L700 601L600 601L500 601L400 601L300 601L200 601L100 601L0 601Z" fill="#ffd786"></path></svg>